<?xml version="1.0" encoding="UTF-8"?>
<svg version="1.1" xmlns="http://www.w3.org/2000/svg" width="239" height="49">
<path d="M0 0 C78.87 0 157.74 0 239 0 C239 16.17 239 32.34 239 49 C160.13 49 81.26 49 0 49 C0 32.83 0 16.66 0 0 Z " fill="#060606" transform="translate(0,0)"/>
<path d="M0 0 C2.26403952 0.03977993 4.52223679 0.02065493 6.78637695 -0.00512695 C8.23887341 0.00243151 9.69135701 0.01338436 11.14379883 0.02807617 C12.45034424 0.04008057 13.75688965 0.05208496 15.10302734 0.06445312 C19.76299248 0.9226099 21.37921189 2.41539093 24.70239258 5.72729492 C26.99222196 10.30695369 26.01395908 17.04324932 26.05249023 22.12988281 C26.06903782 23.73126775 26.09631267 25.33257919 26.13452148 26.93359375 C26.18941989 29.24672608 26.21118176 31.55812928 26.22583008 33.87182617 C26.24849945 34.58345413 26.27116882 35.29508209 26.29452515 36.02827454 C26.27784574 39.97201208 25.83316508 41.56823833 23.29467773 44.65576172 C19.29392897 47.85281891 17.21503593 47.85537605 12.12036133 47.86010742 C11.46916824 47.86106415 10.81797516 47.86202087 10.14704895 47.86300659 C8.76762801 47.86368745 7.38820386 47.86183974 6.00878906 47.85766602 C3.9085356 47.85234218 1.80849852 47.85760071 -0.29174805 47.86401367 C-1.63354539 47.86335237 -2.9753426 47.86207012 -4.31713867 47.86010742 C-5.53506104 47.85897949 -6.7529834 47.85785156 -8.0078125 47.85668945 C-10.902807 47.74282325 -13.48662587 47.39703547 -16.29760742 46.72729492 C-16.29760742 46.06729492 -16.29760742 45.40729492 -16.29760742 44.72729492 C-16.93698242 44.43854492 -17.57635742 44.14979492 -18.23510742 43.85229492 C-20.29760742 42.72729492 -20.29760742 42.72729492 -21.29760742 40.72729492 C-21.6276032 35.94809518 -21.69661953 31.16903709 -21.75756836 26.37963867 C-21.78414681 24.78493163 -21.82504239 23.19039559 -21.88061523 21.59643555 C-22.39469981 6.6694016 -22.39469981 6.6694016 -18.80151367 2.69213867 C-13.32473518 -0.68106845 -6.22645227 -0.12256529 0 0 Z " fill="#5A97F0" transform="translate(22.297607421875,0.272705078125)"/>
<path d="M0 0 C2.31 0 4.62 0 7 0 C14 16.70050761 14 16.70050761 14 23 C14.66 22.67 15.32 22.34 16 22 C16.77379932 19.53123918 16.77379932 19.53123918 17.375 16.5625 C18.72732506 10.77177475 20.62741794 5.44369081 23 0 C25.31 0 27.62 0 30 0 C30 10.23 30 20.46 30 31 C28.68 31 27.36 31 26 31 C25.505 19.615 25.505 19.615 25 8 C23.10984798 14.44525771 23.10984798 14.44525771 21.23095703 20.89379883 C20.99231934 21.69841553 20.75368164 22.50303223 20.5078125 23.33203125 C20.14647217 24.56530151 20.14647217 24.56530151 19.77783203 25.82348633 C19 28 19 28 17 31 C14.375 31.1875 14.375 31.1875 12 31 C11.0170943 28.10538781 10.03856299 25.20941921 9.0625 22.3125 C8.78470703 21.49587891 8.50691406 20.67925781 8.22070312 19.83789062 C7.95322266 19.04189453 7.68574219 18.24589844 7.41015625 17.42578125 C7.16402588 16.69786377 6.91789551 15.96994629 6.66430664 15.2199707 C5.95627071 12.85386608 5.48436183 10.42180915 5 8 C4.67 15.59 4.34 23.18 4 31 C2.68 31 1.36 31 0 31 C0 20.77 0 10.54 0 0 Z " fill="#C0C0C0" transform="translate(57,7)"/>
<path d="M0 0 C0.82886719 -0.020625 1.65773438 -0.04125 2.51171875 -0.0625 C3.30964844 -0.06765625 4.10757812 -0.0728125 4.9296875 -0.078125 C5.66171387 -0.0874707 6.39374023 -0.09681641 7.14794922 -0.10644531 C9.71185033 0.35580408 10.58351548 1.17701042 12.125 3.25 C12.41796875 6.60546875 12.41796875 6.60546875 12.3125 10.4375 C12.28542969 11.70980469 12.25835938 12.98210938 12.23046875 14.29296875 C12.19566406 15.26878906 12.16085938 16.24460937 12.125 17.25 C8.83349875 17.33685287 5.5422904 17.39033895 2.25 17.4375 C1.31285156 17.46263672 0.37570313 17.48777344 -0.58984375 17.51367188 C-1.48574219 17.52333984 -2.38164062 17.53300781 -3.3046875 17.54296875 C-4.54581299 17.56653442 -4.54581299 17.56653442 -5.81201172 17.59057617 C-6.49279785 17.47818604 -7.17358398 17.3657959 -7.875 17.25 C-10.28003353 13.6424497 -10.1146541 11.90163611 -10.0625 7.625 C-10.05605469 6.45710938 -10.04960937 5.28921875 -10.04296875 4.0859375 C-9.69637155 -1.76591288 -4.70989546 0.02902863 0 0 Z " fill="#DDE5F8" transform="translate(18.875,15.75)"/>
<path d="M0 0 C2.90637238 1.34917491 3.85524972 2.41530095 6 5 C6 7.31 6 9.62 6 12 C0.39 12 -5.22 12 -11 12 C-10.01 13.98 -9.02 15.96 -8 18 C-3.26459767 18.5109633 -3.26459767 18.5109633 0.75 16.5 C1.1625 16.005 1.575 15.51 2 15 C2.99 15 3.98 15 5 15 C4.65557106 17.49710982 4.15296001 18.82154665 2.5 20.75 C-1.29371095 22.64685547 -4.84920662 22.82127997 -9 22 C-12 19.5625 -12 19.5625 -14 17 C-14.33 16.67 -14.66 16.34 -15 16 C-15.56833985 11.71227154 -16.13942938 7.0483635 -13.9765625 3.16015625 C-9.9551422 -0.67241282 -5.18838099 -1.13755947 0 0 Z " fill="#BDBDBD" transform="translate(194,16)"/>
<path d="M0 0 C2.90637238 1.34917491 3.85524972 2.41530095 6 5 C6 7.31 6 9.62 6 12 C0.39 12 -5.22 12 -11 12 C-10.01 13.98 -9.02 15.96 -8 18 C-3.26459767 18.5109633 -3.26459767 18.5109633 0.75 16.5 C1.1625 16.005 1.575 15.51 2 15 C2.99 15 3.98 15 5 15 C4.65557106 17.49710982 4.15296001 18.82154665 2.5 20.75 C-1.29371095 22.64685547 -4.84920662 22.82127997 -9 22 C-12 19.5625 -12 19.5625 -14 17 C-14.33 16.67 -14.66 16.34 -15 16 C-15.56833985 11.71227154 -16.13942938 7.0483635 -13.9765625 3.16015625 C-9.9551422 -0.67241282 -5.18838099 -1.13755947 0 0 Z " fill="#BDBDBD" transform="translate(106,16)"/>
<path d="M0 0 C5.46341463 2.92682927 5.46341463 2.92682927 7 6 C7 7.98 7 9.96 7 12 C1.39 12 -4.22 12 -10 12 C-8.54711014 16.5841963 -8.54711014 16.5841963 -7 18 C-3.54187831 18.33338596 -3.54187831 18.33338596 0 18 C0.66 17.01 1.32 16.02 2 15 C3.32 15 4.64 15 6 15 C5.70049983 17.8951683 5.19065168 18.83823494 2.9375 20.75 C-0.83636849 22.35590149 -3.95698815 22.75959616 -8 22 C-10.8100346 20.20636089 -12.50940468 18.98119065 -14 16 C-14.59534067 10.71847776 -14.8693614 6.43023973 -12.0625 1.8125 C-7.92230197 -0.63782128 -4.69903985 -0.9166844 0 0 Z " fill="#C7C7C7" transform="translate(129,16)"/>
<path d="M0 0 C1.98 0 3.96 0 6 0 C7.84307955 3.59926342 9.67276517 7.20517031 11.5 10.8125 C12.02464844 11.83666016 12.54929688 12.86082031 13.08984375 13.91601562 C13.58613281 14.89892578 14.08242187 15.88183594 14.59375 16.89453125 C15.05458984 17.80050049 15.51542969 18.70646973 15.99023438 19.63989258 C17 22 17 22 17 25 C17.66 25 18.32 25 19 25 C19 16.75 19 8.5 19 0 C19.99 0 20.98 0 22 0 C22 9.9 22 19.8 22 30 C20.35 30 18.7 30 17 30 C13 23.25 13 23.25 13 21 C12.34 21 11.68 21 11 21 C10.67 19.02 10.34 17.04 10 15 C9.34 15 8.68 15 8 15 C5.96564469 11.27034861 5 9.33094958 5 5 C4.34 5 3.68 5 3 5 C3 13.25 3 21.5 3 30 C2.01 30 1.02 30 0 30 C0 20.1 0 10.2 0 0 Z " fill="#EDEDED" transform="translate(153,8)"/>
<path d="M0 0 C0.33 0 0.66 0 1 0 C1 4.29 1 8.58 1 13 C1.66 13 2.32 13 3 13 C3.33 13.66 3.66 14.32 4 15 C10.6 15.33 17.2 15.66 24 16 C24 12.37 24 8.74 24 5 C24.66 4.67 25.32 4.34 26 4 C26.103125 5.258125 26.20625 6.51625 26.3125 7.8125 C26.64181552 10.40128589 26.83453804 11.75574664 28.3125 13.9375 C30.25908586 15.28553289 30.25908586 15.28553289 34 16 C34 10.72 34 5.44 34 0 C37.53395616 5.30093424 37.41423652 11.78645214 37 18 C36 20 36 20 34 21 C31.30986661 21.18704404 28.70313823 21.08581391 26 21 C25.34 21.33 24.68 21.66 24 22 C21.0479965 22.17776132 18.14127402 22.27764035 15.1875 22.3125 C13.97610352 22.35600586 13.97610352 22.35600586 12.74023438 22.40039062 C8.63551763 22.44409359 6.54378257 22.34206816 2.98828125 20.10546875 C-0.61782086 16.28682624 -0.11860109 12.87231286 -0.0625 7.875 C-0.05798828 7.12089844 -0.05347656 6.36679687 -0.04882812 5.58984375 C-0.03703499 3.72652873 -0.01909942 1.86325445 0 0 Z " fill="#307AE3" transform="translate(7,17)"/>
<path d="M0 0 C3.58790575 0.29899215 4.78166776 0.76986601 7.3125 3.4375 C9 6 9 6 9 8 C9.66 8 10.32 8 11 8 C11.268125 7.236875 11.53625 6.47375 11.8125 5.6875 C12.95795247 3.09516021 13.76415181 1.69924463 16 0 C16.99 0 17.98 0 19 0 C18.02254667 2.70679384 17.18026942 4.78634735 15.3125 7 C13.79425383 8.91481673 13.79425383 8.91481673 14 11.25 C15.43466285 15.19532284 17.66548989 18.52838533 20 22 C16.41209425 21.70100785 15.21833224 21.23013399 12.6875 18.5625 C11 16 11 16 11 14 C8.35247996 16.57784846 6.05567935 18.91648098 4 22 C2.68 21.67 1.36 21.34 0 21 C0.66708984 20.22076172 0.66708984 20.22076172 1.34765625 19.42578125 C4.83265345 15.36115341 4.83265345 15.36115341 6.1875 10.375 C4.56486983 7.12973965 2.37698913 4.74267977 0 2 C0 1.34 0 0.68 0 0 Z " fill="#F1F1F1" transform="translate(202,16)"/>
<path d="M0 0 C0.99 0 1.98 0 3 0 C3 2.64 3 5.28 3 8 C4.65 8 6.3 8 8 8 C8 8.99 8 9.98 8 11 C6.68 11 5.36 11 4 11 C4 16.28 4 21.56 4 27 C5.32 27 6.64 27 8 27 C8 27.99 8 28.98 8 30 C5.125 30.1875 5.125 30.1875 2 30 C-0.52775351 26.20836973 -0.22443035 23.19125969 -0.125 18.8125 C-0.11597656 18.06291016 -0.10695312 17.31332031 -0.09765625 16.54101562 C-0.07412578 14.69387346 -0.03825561 12.84689588 0 11 C-0.99 11 -1.98 11 -3 11 C-3 10.01 -3 9.02 -3 8 C-2.01 8 -1.02 8 0 8 C0 5.36 0 2.72 0 0 Z " fill="#ECECEC" transform="translate(226,8)"/>
<path d="M0 0 C0.99 0 1.98 0 3 0 C3 2.64 3 5.28 3 8 C4.65 8 6.3 8 8 8 C8 8.99 8 9.98 8 11 C6.68 11 5.36 11 4 11 C4 16.28 4 21.56 4 27 C5.32 27 6.64 27 8 27 C8 27.99 8 28.98 8 30 C5.125 30.1875 5.125 30.1875 2 30 C-0.52775351 26.20836973 -0.22443035 23.19125969 -0.125 18.8125 C-0.11597656 18.06291016 -0.10695312 17.31332031 -0.09765625 16.54101562 C-0.07412578 14.69387346 -0.03825561 12.84689588 0 11 C-0.99 11 -1.98 11 -3 11 C-3 10.01 -3 9.02 -3 8 C-2.01 8 -1.02 8 0 8 C0 5.36 0 2.72 0 0 Z " fill="#ECECEC" transform="translate(141,8)"/>
<path d="M0 0 C0.33 0 0.66 0 1 0 C1 1.65 1 3.3 1 5 C5.62 5 10.24 5 15 5 C15.33 4.34 15.66 3.68 16 3 C16.33 4.32 16.66 5.64 17 7 C11.39 7 5.78 7 0 7 C1.54042748 11.80304035 1.54042748 11.80304035 4 14 C7.5 14.41666667 7.5 14.41666667 11 14 C11.66 13.01 12.32 12.02 13 11 C14.32 11 15.64 11 17 11 C16.70049983 13.8951683 16.19065168 14.83823494 13.9375 16.75 C10.16363151 18.35590149 7.04301185 18.75959616 3 18 C0.1899654 16.20636089 -1.50940468 14.98119065 -3 12 C-3.37660099 7.01003693 -3.05506745 4.03268903 0 0 Z " fill="#F5F5F5" transform="translate(118,20)"/>
<path d="M0 0 C0.99 0.66 1.98 1.32 3 2 C3 3.65 3 5.3 3 7 C-2.61 7 -8.22 7 -14 7 C-14 8.32 -14 9.64 -14 11 C-13.34 11 -12.68 11 -12 11 C-11.01 12.485 -11.01 12.485 -10 14 C-6.54213985 14.50007794 -6.54213985 14.50007794 -3 14 C-1.2488427 12.5833253 -1.2488427 12.5833253 0 11 C0.99 11 1.98 11 3 11 C2.65557106 13.49710982 2.15296001 14.82154665 0.5 16.75 C-3.32866281 18.66433141 -6.81168673 18.75270399 -11 18 C-14.0625 16.1875 -14.0625 16.1875 -16 13 C-16.3956155 9.29370744 -16.29246282 5.71102824 -16 2 C-15.34 2 -14.68 2 -14 2 C-14 2.99 -14 3.98 -14 5 C-9.05 5 -4.1 5 1 5 C0.67 3.35 0.34 1.7 0 0 Z " fill="#DEDEDE" transform="translate(196,20)"/>
<path d="M0 0 C0.99 0.66 1.98 1.32 3 2 C3 3.65 3 5.3 3 7 C-2.61 7 -8.22 7 -14 7 C-14 8.32 -14 9.64 -14 11 C-13.34 11 -12.68 11 -12 11 C-11.01 12.485 -11.01 12.485 -10 14 C-6.54213985 14.50007794 -6.54213985 14.50007794 -3 14 C-1.2488427 12.5833253 -1.2488427 12.5833253 0 11 C0.99 11 1.98 11 3 11 C2.65557106 13.49710982 2.15296001 14.82154665 0.5 16.75 C-3.32866281 18.66433141 -6.81168673 18.75270399 -11 18 C-14.0625 16.1875 -14.0625 16.1875 -16 13 C-16.3956155 9.29370744 -16.29246282 5.71102824 -16 2 C-15.34 2 -14.68 2 -14 2 C-14 2.99 -14 3.98 -14 5 C-9.05 5 -4.1 5 1 5 C0.67 3.35 0.34 1.7 0 0 Z " fill="#DEDEDE" transform="translate(108,20)"/>
<path d="M0 0 C0.33 0 0.66 0 1 0 C1.0093457 0.94842773 1.01869141 1.89685547 1.02832031 2.87402344 C1.07239231 6.40064758 1.13402783 9.92606203 1.20751953 13.45214844 C1.23570535 14.97677431 1.25693189 16.50154566 1.27099609 18.02636719 C1.29246049 20.22145936 1.33912169 22.41480711 1.390625 24.609375 C1.41157227 25.92905273 1.43251953 27.24873047 1.45410156 28.60839844 C2.07964392 32.49481816 3.06869339 33.51517414 6 36 C6 36.66 6 37.32 6 38 C18.21 38 30.42 38 43 38 C43 38.66 43 39.32 43 40 C28.81 40 14.62 40 0 40 C0 26.8 0 13.6 0 0 Z " fill="#08192E" transform="translate(0,9)"/>
<path d="M0 0 C2.31 0 4.62 0 7 0 C7 10.23 7 20.46 7 31 C6.01 31 5.02 31 4 31 C4 22.09 4 13.18 4 4 C2.68 4.33 1.36 4.66 0 5 C0 3.35 0 1.7 0 0 Z " fill="#DEDEDE" transform="translate(80,7)"/>
<path d="M0 0 C0.33 0 0.66 0 1 0 C1 5.61 1 11.22 1 17 C-4.625 18.125 -4.625 18.125 -8 16 C-8.66 16.66 -9.32 17.32 -10 18 C-12.03125 18.24291992 -12.03125 18.24291992 -14.5 18.23046875 C-15.8303125 18.22756836 -15.8303125 18.22756836 -17.1875 18.22460938 C-18.5796875 18.20624023 -18.5796875 18.20624023 -20 18.1875 C-20.928125 18.18685547 -21.85625 18.18621094 -22.8125 18.18554688 C-29.71925626 18.14037187 -29.71925626 18.14037187 -32 17 C-32 16.34 -32 15.68 -32 15 C-24.74 15.33 -17.48 15.66 -10 16 C-10 12.37 -10 8.74 -10 5 C-9.34 4.67 -8.68 4.34 -8 4 C-7.896875 5.258125 -7.79375 6.51625 -7.6875 7.8125 C-7.35818448 10.40128589 -7.16546196 11.75574664 -5.6875 13.9375 C-3.74091414 15.28553289 -3.74091414 15.28553289 0 16 C0 10.72 0 5.44 0 0 Z " fill="#395698" transform="translate(41,17)"/>
<path d="M0 0 C0.99 0 1.98 0 3 0 C3 9.9 3 19.8 3 30 C1.35 30 -0.3 30 -2 30 C-2 28.68 -2 27.36 -2 26 C-1.34 26 -0.68 26 0 26 C0 17.42 0 8.84 0 0 Z " fill="#F1F1F1" transform="translate(172,8)"/>
<path d="M0 0 C0 5.61 0 11.22 0 17 C-4.93277311 15.76680672 -4.93277311 15.76680672 -7 13 C-7.67716527 9.93582715 -7.61048297 7.07461423 -7 4 C-3.29268293 0 -3.29268293 0 0 0 Z " fill="#D4DCF2" transform="translate(40,16)"/>
<path d="M0 0 C5.61 0 11.22 0 17 0 C17 1.65 17 3.3 17 5 C16.67 4.34 16.34 3.68 16 3 C12.81765895 4.75454385 12.81765895 4.75454385 10 7 C6.625 7.3125 6.625 7.3125 3 7 C1.0625 5.1875 1.0625 5.1875 0 3 C0 2.01 0 1.02 0 0 Z " fill="#0D0D0D" transform="translate(183,28)"/>
<path d="M0 0 C5.61 0 11.22 0 17 0 C17 1.65 17 3.3 17 5 C16.67 4.34 16.34 3.68 16 3 C12.81765895 4.75454385 12.81765895 4.75454385 10 7 C6.625 7.3125 6.625 7.3125 3 7 C1.0625 5.1875 1.0625 5.1875 0 3 C0 2.01 0 1.02 0 0 Z " fill="#0D0D0D" transform="translate(95,28)"/>
<path d="M0 0 C2.77879284 3.41150259 4.73754269 7.14223092 6.6875 11.0625 C7.16799805 11.99932617 7.16799805 11.99932617 7.65820312 12.95507812 C9.09841353 15.83242812 10 17.73832963 10 21 C10.66 21.33 11.32 21.66 12 22 C10.68 22.33 9.36 22.66 8 23 C7.34 21.02 6.68 19.04 6 17 C5.34 17 4.68 17 4 17 C3.67 15.02 3.34 13.04 3 11 C2.34 11 1.68 11 1 11 C-1.03435531 7.27034861 -2 5.33094958 -2 1 C-1.34 0.67 -0.68 0.34 0 0 Z " fill="#E0E0E0" transform="translate(160,12)"/>
<path d="M0 0 C0.33 0 0.66 0 1 0 C1 4.29 1 8.58 1 13 C1.66 13 2.32 13 3 13 C2.67 14.32 2.34 15.64 2 17 C5.58326501 17.05814085 9.16640838 17.09364357 12.75 17.125 C13.76578125 17.14175781 14.7815625 17.15851562 15.828125 17.17578125 C17.29765625 17.18544922 17.29765625 17.18544922 18.796875 17.1953125 C20.14797363 17.21102295 20.14797363 17.21102295 21.52636719 17.22705078 C24.13926856 16.98721676 25.75664666 16.32312064 28 15 C29.65 16.32 31.3 17.64 33 19 C31.700625 18.979375 30.40125 18.95875 29.0625 18.9375 C27.70834367 18.91600546 26.35243917 18.92851801 25 19 C24.67 19.33 24.34 19.66 24 20 C20.55039322 20.3062656 17.08653769 20.27834009 13.625 20.3125 C12.65304688 20.34150391 11.68109375 20.37050781 10.6796875 20.40039062 C9.74640625 20.40876953 8.813125 20.41714844 7.8515625 20.42578125 C6.99385254 20.44036377 6.13614258 20.45494629 5.25244141 20.4699707 C3 20 3 20 1.21508789 18.21655273 C-0.63150329 14.84801721 -0.31608346 11.48221729 -0.1875 7.75 C-0.17396484 7.00492188 -0.16042969 6.25984375 -0.14648438 5.4921875 C-0.11127204 3.66114584 -0.05746851 1.83047831 0 0 Z " fill="#2D67C2" transform="translate(7,17)"/>
<path d="M0 0 C0.33 0.66 0.66 1.32 1 2 C2.32 1.67 3.64 1.34 5 1 C5 9.91 5 18.82 5 28 C4.67 28 4.34 28 4 28 C3.67 20.41 3.34 12.82 3 5 C1.68 9.62 0.36 14.24 -1 19 C-1.33 17.68 -1.66 16.36 -2 15 C-2.33 14.67 -2.66 14.34 -3 14 C-3.66 14.99 -4.32 15.98 -5 17 C-4.21781755 12.15046881 -2.59454269 7.62764021 -1 3 C-0.67 2.01 -0.34 1.02 0 0 Z " fill="#A0A0A0" transform="translate(79,10)"/>
<path d="M0 0 C1.32 0 2.64 0 4 0 C4 5.28 4 10.56 4 16 C5.32 16 6.64 16 8 16 C8 16.99 8 17.98 8 19 C5.125 19.1875 5.125 19.1875 2 19 C-0.52775351 15.20836973 -0.22443035 12.19125969 -0.125 7.8125 C-0.11597656 7.06291016 -0.10695312 6.31332031 -0.09765625 5.54101562 C-0.07412578 3.69387346 -0.03825561 1.84689588 0 0 Z " fill="#C8C8C8" transform="translate(226,19)"/>
<path d="M0 0 C1.32 0 2.64 0 4 0 C4 5.28 4 10.56 4 16 C5.32 16 6.64 16 8 16 C8 16.99 8 17.98 8 19 C5.125 19.1875 5.125 19.1875 2 19 C-0.52775351 15.20836973 -0.22443035 12.19125969 -0.125 7.8125 C-0.11597656 7.06291016 -0.10695312 6.31332031 -0.09765625 5.54101562 C-0.07412578 3.69387346 -0.03825561 1.84689588 0 0 Z " fill="#C8C8C8" transform="translate(141,19)"/>
<path d="M0 0 C1.9375 1.3125 1.9375 1.3125 3 3 C3 3.99 3 4.98 3 6 C-1.29 6 -5.58 6 -10 6 C-9.67 4.35 -9.34 2.7 -9 1 C-5.95016004 -0.52491998 -3.3576631 -0.23562548 0 0 Z " fill="#1E1E1E" transform="translate(129,19)"/>
<path d="M0 0 C3.5625 0.375 3.5625 0.375 5.5 2.25 C6.5625 4.375 6.5625 4.375 6.5625 6.375 C2.2725 6.375 -2.0175 6.375 -6.4375 6.375 C-4.97955607 0.5432243 -4.97955607 0.5432243 0 0 Z " fill="#1B1B1B" transform="translate(189.4375,18.625)"/>
<path d="M0 0 C3.5625 0.375 3.5625 0.375 5.5 2.25 C6.5625 4.375 6.5625 4.375 6.5625 6.375 C2.2725 6.375 -2.0175 6.375 -6.4375 6.375 C-4.97955607 0.5432243 -4.97955607 0.5432243 0 0 Z " fill="#1B1B1B" transform="translate(101.4375,18.625)"/>
<path d="M0 0 C0.33 0 0.66 0 1 0 C1 1.65 1 3.3 1 5 C5.62 5 10.24 5 15 5 C15.33 4.34 15.66 3.68 16 3 C16.33 4.32 16.66 5.64 17 7 C8.585 7.495 8.585 7.495 0 8 C-0.33 8.66 -0.66 9.32 -1 10 C-1.66 10 -2.32 10 -3 10 C-2.25 2.25 -2.25 2.25 0 0 Z " fill="#EBEBEB" transform="translate(118,20)"/>
<path d="M0 0 C3.64588169 -0.02682987 7.29156846 -0.04675569 10.9375 -0.0625 C12.49887695 -0.07506836 12.49887695 -0.07506836 14.09179688 -0.08789062 C15.57583008 -0.09272461 15.57583008 -0.09272461 17.08984375 -0.09765625 C18.46450806 -0.10551147 18.46450806 -0.10551147 19.86694336 -0.11352539 C22 0 22 0 23 1 C25.32817964 1.36760731 27.6618385 1.70241581 30 2 C28.35 3.65 26.7 5.3 25 7 C24.53078125 6.18144531 24.0615625 5.36289062 23.578125 4.51953125 C20.76571944 1.77104399 20.3657712 1.63271493 16.671875 1.51171875 C15.03053757 1.54481023 13.38955835 1.60424118 11.75 1.6875 C10.48929688 1.72133789 10.48929688 1.72133789 9.203125 1.75585938 C7.13465036 1.81462286 5.06709512 1.90430115 3 2 C2.67 6.29 2.34 10.58 2 15 C1.67 15 1.34 15 1 15 C0.67 10.05 0.34 5.1 0 0 Z " fill="#7990C1" transform="translate(7,15)"/>
<path d="M0 0 C0.99 0.66 1.98 1.32 3 2 C3.1875 4.625 3.1875 4.625 3 7 C1.79601562 7.04898437 0.59203125 7.09796875 -0.6484375 7.1484375 C-2.22398198 7.22346343 -3.79950166 7.29901133 -5.375 7.375 C-6.1690625 7.4059375 -6.963125 7.436875 -7.78125 7.46875 C-12.36667375 7.51816421 -12.36667375 7.51816421 -16 10 C-16 7.36 -16 4.72 -16 2 C-15.34 2 -14.68 2 -14 2 C-14 2.99 -14 3.98 -14 5 C-9.05 5 -4.1 5 1 5 C0.67 3.35 0.34 1.7 0 0 Z " fill="#F0F0F0" transform="translate(196,20)"/>
<path d="M0 0 C0.99 0.66 1.98 1.32 3 2 C3.1875 4.625 3.1875 4.625 3 7 C1.79601562 7.04898437 0.59203125 7.09796875 -0.6484375 7.1484375 C-2.22398198 7.22346343 -3.79950166 7.29901133 -5.375 7.375 C-6.1690625 7.4059375 -6.963125 7.436875 -7.78125 7.46875 C-12.36667375 7.51816421 -12.36667375 7.51816421 -16 10 C-16 7.36 -16 4.72 -16 2 C-15.34 2 -14.68 2 -14 2 C-14 2.99 -14 3.98 -14 5 C-9.05 5 -4.1 5 1 5 C0.67 3.35 0.34 1.7 0 0 Z " fill="#F0F0F0" transform="translate(108,20)"/>
<path d="M0 0 C2.5 1.5625 2.5 1.5625 5 4 C5 6.31 5 8.62 5 11 C-0.61 11 -6.22 11 -12 11 C-12.33 11.99 -12.66 12.98 -13 14 C-13 12.68 -13 11.36 -13 10 C-7.39 10 -1.78 10 4 10 C3.34 8.02 2.68 6.04 2 4 C1.67 5.32 1.34 6.64 1 8 C-0.485 5.03 -0.485 5.03 -2 2 C-1.34 2 -0.68 2 0 2 C0 1.34 0 0.68 0 0 Z " fill="#A3A3A3" transform="translate(195,17)"/>
<path d="M0 0 C2.5 1.5625 2.5 1.5625 5 4 C5 6.31 5 8.62 5 11 C-0.61 11 -6.22 11 -12 11 C-12.33 11.99 -12.66 12.98 -13 14 C-13 12.68 -13 11.36 -13 10 C-7.39 10 -1.78 10 4 10 C3.34 8.02 2.68 6.04 2 4 C1.67 5.32 1.34 6.64 1 8 C-0.485 5.03 -0.485 5.03 -2 2 C-1.34 2 -0.68 2 0 2 C0 1.34 0 0.68 0 0 Z " fill="#A3A3A3" transform="translate(107,17)"/>
<path d="M0 0 C0.66 0 1.32 0 2 0 C3.00736628 2.93502595 4.00460504 5.87339461 5 8.8125 C5.28617187 9.64587891 5.57234375 10.47925781 5.8671875 11.33789062 C6.13789062 12.14033203 6.40859375 12.94277344 6.6875 13.76953125 C6.93886719 14.50792236 7.19023438 15.24631348 7.44921875 16.00708008 C8 18 8 18 8 21 C7.34 21 6.68 21 6 21 C4.99263372 18.06497405 3.99539496 15.12660539 3 12.1875 C2.71382813 11.35412109 2.42765625 10.52074219 2.1328125 9.66210938 C1.72675781 8.45844727 1.72675781 8.45844727 1.3125 7.23046875 C1.06113281 6.49207764 0.80976562 5.75368652 0.55078125 4.99291992 C0 3 0 3 0 0 Z " fill="#F7F7F7" transform="translate(63,13)"/>
<path d="M0 0 C3.58790575 0.29899215 4.78166776 0.76986601 7.3125 3.4375 C9 6 9 6 9 8 C9.66 8.33 10.32 8.66 11 9 C10.01 9 9.02 9 8 9 C7.67 9.99 7.34 10.98 7 12 C6.401875 10.906875 5.80375 9.81375 5.1875 8.6875 C3.69770009 6.05781761 2.19726601 4.08740271 0 2 C0 1.34 0 0.68 0 0 Z " fill="#D0D0D0" transform="translate(202,16)"/>
<path d="M0 0 C2.64465038 3.1254959 3.84414715 6.08788267 5 10 C4.01 9.67 3.02 9.34 2 9 C1.67 9.66 1.34 10.32 1 11 C-1.03435531 7.27034861 -2 5.33094958 -2 1 C-1.34 0.67 -0.68 0.34 0 0 Z " fill="#BEBEBE" transform="translate(160,12)"/>
<path d="M0 0 C0.53625 0.78375 1.0725 1.5675 1.625 2.375 C4.30242842 5.33426299 6.18433025 6.04608256 10 7 C8.3125 8.625 8.3125 8.625 6 10 C2.8367769 9.30563395 1.36114104 8.39850045 -0.8125 6 C-2 4 -2 4 -2 2 C-1.34 2 -0.68 2 0 2 C0 1.34 0 0.68 0 0 Z " fill="#D7D7D7" transform="translate(117,28)"/>
<path d="M0 0 C0.33 0 0.66 0 1 0 C1 8.25 1 16.5 1 25 C0.67 25 0.34 25 0 25 C-0.33 19.72 -0.66 14.44 -1 9 C-1.99 9.495 -1.99 9.495 -3 10 C-2.01 6.7 -1.02 3.4 0 0 Z " fill="#2C2C2C" transform="translate(82,13)"/>
<path d="M0 0 C3.21880117 3.7935871 5.6163187 7.65829477 8 12 C5.06832781 11.68306247 3.41017339 11.36774166 1.1875 9.375 C-0.41568775 6.1686245 -0.20379759 3.53249148 0 0 Z " fill="#D0D0D0" transform="translate(214,26)"/>
<path d="M0 0 C0.66 0 1.32 0 2 0 C2 0.99 2 1.98 2 3 C2.99 3 3.98 3 5 3 C5 8.28 5 13.56 5 19 C4.67 19 4.34 19 4 19 C4 14.05 4 9.1 4 4 C1.69 4.66 -0.62 5.32 -3 6 C-2.01 4.02 -1.02 2.04 0 0 Z " fill="#3D3D3D" transform="translate(221,16)"/>
<path d="M0 0 C-1.31224548 3.93673644 -2.91910327 6.22719294 -6 9 C-6 8.34 -6 7.68 -6 7 C-6.66 6.67 -7.32 6.34 -8 6 C-3.375 0 -3.375 0 0 0 Z " fill="#D6D6D6" transform="translate(221,16)"/>
<path d="M0 0 C2.97 0 5.94 0 9 0 C9.33 0.99 9.66 1.98 10 3 C6.37 3 2.74 3 -1 3 C-0.67 2.01 -0.34 1.02 0 0 Z " fill="#E1E1E1" transform="translate(185,16)"/>
<path d="M0 0 C2.97 0 5.94 0 9 0 C9.33 0.99 9.66 1.98 10 3 C6.37 3 2.74 3 -1 3 C-0.67 2.01 -0.34 1.02 0 0 Z " fill="#E1E1E1" transform="translate(97,16)"/>
<path d="M0 0 C0.99 0 1.98 0 3 0 C2.66260373 2.530472 2.3938922 3.6818563 0.375 5.3125 C-2.94598174 6.27383682 -5.64617202 5.64496692 -9 5 C-9 4.67 -9 4.34 -9 4 C-7.88625 3.71125 -6.7725 3.4225 -5.625 3.125 C-1.99708908 2.30758671 -1.99708908 2.30758671 0 0 Z " fill="#CDCDCD" transform="translate(196,31)"/>
<path d="M0 0 C0.99 0 1.98 0 3 0 C2.66260373 2.530472 2.3938922 3.6818563 0.375 5.3125 C-2.94598174 6.27383682 -5.64617202 5.64496692 -9 5 C-9 4.67 -9 4.34 -9 4 C-7.88625 3.71125 -6.7725 3.4225 -5.625 3.125 C-1.99708908 2.30758671 -1.99708908 2.30758671 0 0 Z " fill="#CDCDCD" transform="translate(108,31)"/>
<path d="M0 0 C0.99 0.66 1.98 1.32 3 2 C3 3.65 3 5.3 3 7 C-2.28 7 -7.56 7 -13 7 C-13 6.67 -13 6.34 -13 6 C-6.565 5.505 -6.565 5.505 0 5 C0 3.35 0 1.7 0 0 Z " fill="#FDFDFD" transform="translate(196,20)"/>
<path d="M0 0 C0.99 0.66 1.98 1.32 3 2 C3 3.65 3 5.3 3 7 C-2.28 7 -7.56 7 -13 7 C-13 6.67 -13 6.34 -13 6 C-6.565 5.505 -6.565 5.505 0 5 C0 3.35 0 1.7 0 0 Z " fill="#FDFDFD" transform="translate(108,20)"/>
<path d="M0 0 C0.66 1.32 1.32 2.64 2 4 C1.01 5.32 0.02 6.64 -1 8 C-2.32 7.67 -3.64 7.34 -5 7 C-3.35 4.69 -1.7 2.38 0 0 Z " fill="#D9D9D9" transform="translate(207,30)"/>
<path d="M0 0 C1.32 0.33 2.64 0.66 4 1 C5.25 4.0625 5.25 4.0625 6 7 C5.01 6.67 4.02 6.34 3 6 C2.67 6.66 2.34 7.32 2 8 C1.34 5.36 0.68 2.72 0 0 Z " fill="#D0D0D0" transform="translate(162,21)"/>
<path d="M0 0 C2.97 0.33 5.94 0.66 9 1 C7.35 2.65 5.7 4.3 4 6 C0 1.125 0 1.125 0 0 Z " fill="#799CDA" transform="translate(28,16)"/>
<path d="M0 0 C0.66 0.33 1.32 0.66 2 1 C2 1.99 2 2.98 2 4 C-3.28 4 -8.56 4 -14 4 C-14 3.67 -14 3.34 -14 3 C-13.07316406 2.95101563 -12.14632812 2.90203125 -11.19140625 2.8515625 C-9.99386719 2.77679687 -8.79632813 2.70203125 -7.5625 2.625 C-6.36753906 2.55539063 -5.17257813 2.48578125 -3.94140625 2.4140625 C-2.97074219 2.27742188 -2.00007812 2.14078125 -1 2 C-0.67 1.34 -0.34 0.68 0 0 Z " fill="#FEFEFE" transform="translate(133,23)"/>
<path d="M0 0 C2.97 0.33 5.94 0.66 9 1 C9 1.66 9 2.32 9 3 C6.03 3 3.06 3 0 3 C0 2.01 0 1.02 0 0 Z " fill="#F1F1F1" transform="translate(185,35)"/>
<path d="M0 0 C2.97 0.33 5.94 0.66 9 1 C9 1.66 9 2.32 9 3 C6.03 3 3.06 3 0 3 C0 2.01 0 1.02 0 0 Z " fill="#F1F1F1" transform="translate(97,35)"/>
<path d="M0 0 C0.33 0 0.66 0 1 0 C0.67 2.64 0.34 5.28 0 8 C-0.99 8 -1.98 8 -3 8 C-2.25 2.25 -2.25 2.25 0 0 Z " fill="#EAEAEA" transform="translate(80,13)"/>
<path d="M0 0 C0.66 0.33 1.32 0.66 2 1 C2 1.99 2 2.98 2 4 C1.34 4 0.68 4 0 4 C-0.33 4.66 -0.66 5.32 -1 6 C-1.66 6 -2.32 6 -3 6 C-3.66 6.99 -4.32 7.98 -5 9 C-4.5206753 4.68607774 -3.2542015 2.83430453 0 0 Z " fill="#BCBCBC" transform="translate(120,16)"/>
<path d="M0 0 C1.32 0 2.64 0 4 0 C3.67 1.32 3.34 2.64 3 4 C0 4 0 4 -2 3 C-1.34 2.01 -0.68 1.02 0 0 Z " fill="#C5C5C5" transform="translate(131,31)"/>
<path d="M0 0 C1.32 0.99 2.64 1.98 4 3 C3.67 3.66 3.34 4.32 3 5 C2.67 5 2.34 5 2 5 C1.67 5.99 1.34 6.98 1 8 C0.01 6.02 -0.98 4.04 -2 2 C-1.34 2 -0.68 2 0 2 C0 1.34 0 0.68 0 0 Z " fill="#BABABA" transform="translate(195,17)"/>
<path d="M0 0 C1.32 0.99 2.64 1.98 4 3 C3.67 3.66 3.34 4.32 3 5 C2.67 5 2.34 5 2 5 C1.67 5.99 1.34 6.98 1 8 C0.01 6.02 -0.98 4.04 -2 2 C-1.34 2 -0.68 2 0 2 C0 1.34 0 0.68 0 0 Z " fill="#BABABA" transform="translate(107,17)"/>
</svg>
