<?xml version="1.0" encoding="UTF-8"?>
<svg version="1.1" xmlns="http://www.w3.org/2000/svg" width="236" height="51">
<path d="M0 0 C77.88 0 155.76 0 236 0 C236 16.83 236 33.66 236 51 C158.12 51 80.24 51 0 51 C0 34.17 0 17.34 0 0 Z " fill="#FDFDFD" transform="translate(0,0)"/>
<path d="M0 0 C0.76217331 -0.00807175 1.52434662 -0.01614349 2.30961609 -0.02445984 C3.92440518 -0.0382985 5.53922349 -0.04902164 7.15405273 -0.05688477 C9.61694208 -0.07408067 12.07848281 -0.11796382 14.54101562 -0.16210938 C16.11066722 -0.1722381 17.68033022 -0.18075364 19.25 -0.1875 C19.98350174 -0.20500809 20.71700348 -0.22251617 21.47273254 -0.24055481 C25.10140374 -0.22525574 27.16263549 0.13727663 30.26635742 2.07739258 C34.9486402 6.99409502 33.62390523 14.86913046 33.67431641 21.2890625 C33.69088124 22.83511401 33.71817896 24.38108876 33.75634766 25.92675781 C33.81124763 28.16381246 33.83300492 30.39908037 33.84765625 32.63671875 C33.87032562 33.32333588 33.892995 34.009953 33.91635132 34.71737671 C33.89933839 38.60119435 33.42535742 40.11593443 30.91650391 43.15087891 C26.9034833 46.38230914 24.07298833 46.42361972 19.0859375 46.4765625 C18.36815628 46.48463425 17.65037506 46.49270599 16.9108429 46.50102234 C15.39021212 46.51485911 13.86955034 46.5255831 12.34887695 46.53344727 C10.03080833 46.55063967 7.71417406 46.59452306 5.39648438 46.63867188 C3.91797922 46.64880102 2.43946196 46.65731644 0.9609375 46.6640625 C0.27118332 46.68157059 -0.41857086 46.69907867 -1.12922668 46.71711731 C-4.60097637 46.70158345 -6.55837751 46.31140861 -9.52807617 44.46166992 C-14.97340604 38.82445052 -14.04807866 32.43217452 -14.04638672 25.02148438 C-14.05075374 22.87679245 -14.08707781 20.73417106 -14.125 18.58984375 C-14.1308703 17.21485073 -14.13483827 15.83984801 -14.13671875 14.46484375 C-14.14493652 13.22299316 -14.1531543 11.98114258 -14.16162109 10.70166016 C-13.58686382 6.60442059 -12.2466878 4.44038638 -9.67578125 1.23828125 C-6.60534699 -0.29693588 -3.37149521 0.03367478 0 0 Z " fill="#5D9DFA" transform="translate(13.67578125,2.76171875)"/>
<path d="M0 0 C1.98 0 3.96 0 6 0 C8.83888472 6.68949963 11.12543669 13.43625197 13.16796875 20.41015625 C13.75151384 22.9038255 13.75151384 22.9038255 15 24 C15.32613281 22.85402344 15.65226562 21.70804688 15.98828125 20.52734375 C16.4294515 18.99732777 16.87087106 17.46738365 17.3125 15.9375 C17.63250977 14.80924805 17.63250977 14.80924805 17.95898438 13.65820312 C19.33120104 8.92712776 20.96751445 4.48815725 23 0 C24.98 0 26.96 0 29 0 C29 10.23 29 20.46 29 31 C28.01 31 27.02 31 26 31 C25.505 18.625 25.505 18.625 25 6 C22.36 13.92 19.72 21.84 17 30 C15.35 30.33 13.7 30.66 12 31 C9.36 22.75 6.72 14.5 4 6 C3.67 14.25 3.34 22.5 3 31 C2.01 31 1.02 31 0 31 C0 20.77 0 10.54 0 0 Z " fill="#DCC9B6" transform="translate(57,8)"/>
<path d="M0 0 C0.88494141 -0.01224609 1.76988281 -0.02449219 2.68164062 -0.03710938 C3.52791016 -0.03904297 4.37417969 -0.04097656 5.24609375 -0.04296875 C6.02525146 -0.04707764 6.80440918 -0.05118652 7.60717773 -0.05541992 C9.5625 0.1875 9.5625 0.1875 11.5625 2.1875 C11.70747985 4.76814129 11.74927545 7.23693884 11.6875 9.8125 C11.67847656 10.51890625 11.66945313 11.2253125 11.66015625 11.953125 C11.63657603 13.69806098 11.60070461 15.44282295 11.5625 17.1875 C8.27099875 17.27435287 4.9797904 17.32783895 1.6875 17.375 C0.75035156 17.40013672 -0.18679687 17.42527344 -1.15234375 17.45117188 C-2.04824219 17.46083984 -2.94414062 17.47050781 -3.8671875 17.48046875 C-5.10831299 17.50403442 -5.10831299 17.50403442 -6.37451172 17.52807617 C-7.05529785 17.41568604 -7.73608398 17.3032959 -8.4375 17.1875 C-10.84253353 13.5799497 -10.6771541 11.83913611 -10.625 7.5625 C-10.61855469 6.39460938 -10.61210937 5.22671875 -10.60546875 4.0234375 C-10.25639498 -1.87022655 -4.77925445 0.00346574 0 0 Z " fill="#DEE6F9" transform="translate(18.4375,16.8125)"/>
<path d="M0 0 C1.65 0 3.3 0 5 0 C6.97973439 3.62469022 8.95869124 7.24980438 10.9375 10.875 C11.50146484 11.90753906 12.06542969 12.94007812 12.64648438 14.00390625 C13.18466797 14.99003906 13.72285156 15.97617187 14.27734375 16.9921875 C15.02359009 18.35899658 15.02359009 18.35899658 15.78491211 19.75341797 C16.54443557 21.15770467 17.28601162 22.57202324 18 24 C18.33 16.08 18.66 8.16 19 0 C20.32 0 21.64 0 23 0 C23 10.23 23 20.46 23 31 C21.02 31 19.04 31 17 31 C15.34703881 27.92043712 13.70389829 24.83573921 12.0625 21.75 C11.59392578 20.87730469 11.12535156 20.00460938 10.64257812 19.10546875 C10.19462891 18.26113281 9.74667969 17.41679687 9.28515625 16.546875 C8.87144775 15.77182617 8.45773926 14.99677734 8.03149414 14.19824219 C7.0607156 12.1293925 6.46441571 10.2309731 6 8 C5.34 8 4.68 8 4 8 C4 15.59 4 23.18 4 31 C2.68 31 1.36 31 0 31 C0 20.77 0 10.54 0 0 Z " fill="#DDCBBA" transform="translate(152,8)"/>
<path d="M0 0 C2.87029869 1.79393668 4.49131638 2.98263276 6 6 C6 7.98 6 9.96 6 12 C0.39 12 -5.22 12 -11 12 C-9.54711014 16.5841963 -9.54711014 16.5841963 -8 18 C-4.58375742 18.33354403 -4.58375742 18.33354403 -1 18 C0.66710346 16.50014391 0.66710346 16.50014391 2 15 C4.1875 15.3125 4.1875 15.3125 6 16 C1.55148741 21.78306636 1.55148741 21.78306636 -2.20703125 22.30859375 C-6.99514042 22.54548671 -9.23595143 22.59595788 -13.125 19.5625 C-15.74133792 15.6240269 -15.90293797 11.55536274 -15 7 C-11.23445152 -0.02902384 -7.62365123 -0.98751959 0 0 Z " fill="#DDCBB9" transform="translate(129,17)"/>
<path d="M0 0 C2.9171225 1.32812081 3.85682282 2.41719673 6 5 C6 7.31 6 9.62 6 12 C0.39 12 -5.22 12 -11 12 C-9.66436384 16.94463635 -9.66436384 16.94463635 -7 18 C-4.04195427 18.33340471 -4.04195427 18.33340471 -1 18 C0.0194119 17.01979625 1.02246356 16.02196992 2 15 C4.1875 15.3125 4.1875 15.3125 6 16 C1.54841981 21.78705425 1.54841981 21.78705425 -1.98828125 22.2734375 C-6.43801478 22.46787964 -8.35399301 22.49796372 -12 19.6875 C-15.14806341 15.45728979 -15.35741717 12.18254891 -15 7 C-11.77072402 0.0801229 -7.15383317 -1.16797276 0 0 Z " fill="#DDCAB8" transform="translate(193,17)"/>
<path d="M0 0 C2.9171225 1.32812081 3.85682282 2.41719673 6 5 C6 7.31 6 9.62 6 12 C0.39 12 -5.22 12 -11 12 C-9.66436384 16.94463635 -9.66436384 16.94463635 -7 18 C-4.04195427 18.33340471 -4.04195427 18.33340471 -1 18 C0.0194119 17.01979625 1.02246356 16.02196992 2 15 C4.1875 15.3125 4.1875 15.3125 6 16 C1.54841981 21.78705425 1.54841981 21.78705425 -1.98828125 22.2734375 C-6.43801478 22.46787964 -8.35399301 22.49796372 -12 19.6875 C-15.14806341 15.45728979 -15.35741717 12.18254891 -15 7 C-11.77072402 0.0801229 -7.15383317 -1.16797276 0 0 Z " fill="#DDCAB8" transform="translate(105,17)"/>
<path d="M0 0 C0.33 0 0.66 0 1 0 C1.06058594 0.91523438 1.12117187 1.83046875 1.18359375 2.7734375 C1.26738281 3.96195313 1.35117188 5.15046875 1.4375 6.375 C1.51871094 7.55835938 1.59992187 8.74171875 1.68359375 9.9609375 C1.81084936 12.91518901 1.81084936 12.91518901 3 15 C9.6 15 16.2 15 23 15 C23.33 11.37 23.66 7.74 24 4 C24.33 4 24.66 4 25 4 C25.12375 5.8871875 25.12375 5.8871875 25.25 7.8125 C25.62323029 10.86866106 25.73110175 11.72242761 27.9375 14 C29.91791469 15.1454245 29.91791469 15.1454245 32 15 C32.33 10.05 32.66 5.1 33 0 C33.33 0 33.66 0 34 0 C34.02683987 2.97922593 34.04676037 5.95821295 34.0625 8.9375 C34.07087891 9.78763672 34.07925781 10.63777344 34.08789062 11.51367188 C34.09111328 12.32255859 34.09433594 13.13144531 34.09765625 13.96484375 C34.10289307 14.7137085 34.10812988 15.46257324 34.11352539 16.23413086 C34 18 34 18 33 19 C31.9275 19.144375 30.855 19.28875 29.75 19.4375 C26.16767921 19.80411187 26.16767921 19.80411187 23.73046875 21.01171875 C20.25060548 22.27124008 17.25816053 22.33778287 13.5625 22.375 C12.28503906 22.40335938 11.00757813 22.43171875 9.69140625 22.4609375 C5.17513003 21.89700036 2.2238195 20.2238195 -1 17 C-1.42564759 11.27879563 -0.82264831 5.65570712 0 0 Z " fill="#2666C7" transform="translate(7,18)"/>
<path d="M0 0 C1.32 0 2.64 0 4 0 C8 5.11111111 8 5.11111111 8 8 C10.60608273 5.4837822 12.89381685 2.94865641 15 0 C16.32 0.33 17.64 0.66 19 1 C18.55527344 1.51949219 18.11054688 2.03898437 17.65234375 2.57421875 C14.1833615 6.6130553 14.1833615 6.6130553 12.8125 11.5625 C14.48978448 15.00534709 16.64740353 17.98763478 19 21 C17.68 21.33 16.36 21.66 15 22 C14.66226563 21.50628906 14.32453125 21.01257813 13.9765625 20.50390625 C13.53054687 19.86324219 13.08453125 19.22257812 12.625 18.5625 C11.96371094 17.60537109 11.96371094 17.60537109 11.2890625 16.62890625 C10.07839147 14.86259072 10.07839147 14.86259072 8 14 C7.731875 14.763125 7.46375 15.52625 7.1875 16.3125 C6.03868178 18.91245703 5.32721056 20.38885423 3 22 C0.8984375 21.5703125 0.8984375 21.5703125 -1 21 C-0.55527344 20.49210937 -0.11054688 19.98421875 0.34765625 19.4609375 C4.00022006 15.16489791 4.00022006 15.16489791 5.125 9.8125 C3.86811831 6.67029576 2.19815044 4.55269083 0 2 C0 1.34 0 0.68 0 0 Z " fill="#DDCAB8" transform="translate(202,17)"/>
<path d="M0 0 C1.32 0 2.64 0 4 0 C4 2.97 4 5.94 4 9 C5.65 9 7.3 9 9 9 C9 9.99 9 10.98 9 12 C7.35 12 5.7 12 4 12 C4.33 16.95 4.66 21.9 5 27 C6.32 27.33 7.64 27.66 9 28 C9 28.99 9 29.98 9 31 C3.60674157 31.35955056 3.60674157 31.35955056 1.3125 30 C-0.76763714 26.83026721 -0.31199229 23.46746606 -0.1875 19.8125 C-0.16719727 18.68811523 -0.16719727 18.68811523 -0.14648438 17.54101562 C-0.11118539 15.69370233 -0.05737917 13.84675934 0 12 C-0.99 12 -1.98 12 -3 12 C-3 11.01 -3 10.02 -3 9 C-2.01 9 -1.02 9 0 9 C0 6.03 0 3.06 0 0 Z " fill="#DECCBB" transform="translate(225,8)"/>
<path d="M0 0 C1.32 0 2.64 0 4 0 C4 2.97 4 5.94 4 9 C5.65 9 7.3 9 9 9 C9 9.99 9 10.98 9 12 C7.35 12 5.7 12 4 12 C4.33 16.95 4.66 21.9 5 27 C6.32 27.33 7.64 27.66 9 28 C9 28.99 9 29.98 9 31 C3.60674157 31.35955056 3.60674157 31.35955056 1.3125 30 C-0.76763714 26.83026721 -0.31199229 23.46746606 -0.1875 19.8125 C-0.16719727 18.68811523 -0.16719727 18.68811523 -0.14648438 17.54101562 C-0.11118539 15.69370233 -0.05737917 13.84675934 0 12 C-0.99 12 -1.98 12 -3 12 C-3 11.01 -3 10.02 -3 9 C-2.01 9 -1.02 9 0 9 C0 6.03 0 3.06 0 0 Z " fill="#DECCBB" transform="translate(140,8)"/>
<path d="M0 0 C0 5.28 0 10.56 0 16 C-4 16 -4 16 -6.25 15 C-8.48716196 12.44324348 -8.6213963 10.35276123 -8.4609375 7.0078125 C-7.4298669 2.51653888 -4.4896093 0 0 0 Z " fill="#D3DBF1" transform="translate(40,17)"/>
<path d="M0 0 C0.33 0 0.66 0 1 0 C1 5.94 1 11.88 1 18 C-0.65 18.33 -2.3 18.66 -4 19 C-4.33 18.67 -4.66 18.34 -5 18 C-6.75763337 17.92487944 -8.5182272 17.91683322 -10.27734375 17.9375 C-11.34791016 17.94523437 -12.41847656 17.95296875 -13.52148438 17.9609375 C-15.79492239 17.9869345 -18.06835989 18.01297602 -20.34179688 18.0390625 C-21.94958008 18.05066406 -21.94958008 18.05066406 -23.58984375 18.0625 C-25.07278931 18.07990234 -25.07278931 18.07990234 -26.58569336 18.09765625 C-29 18 -29 18 -31 17 C-30.67 16.34 -30.34 15.68 -30 15 C-23.4 15 -16.8 15 -10 15 C-9.67 11.37 -9.34 7.74 -9 4 C-8.67 4 -8.34 4 -8 4 C-7.87625 5.8871875 -7.87625 5.8871875 -7.75 7.8125 C-7.37676971 10.86866106 -7.26889825 11.72242761 -5.0625 14 C-3.08208531 15.1454245 -3.08208531 15.1454245 -1 15 C-0.67 10.05 -0.34 5.1 0 0 Z " fill="#274385" transform="translate(40,18)"/>
<path d="M0 0 C7.59 0 15.18 0 23 0 C23 0.66 23 1.32 23 2 C25.31 2 27.62 2 30 2 C28.71937515 3.7074998 27.38232443 5.37373596 26 7 C25.34 7 24.68 7 24 7 C24 10.63 24 14.26 24 18 C23.67 18 23.34 18 23 18 C22.93941406 17.00097656 22.87882812 16.00195312 22.81640625 14.97265625 C22.73261719 13.68230469 22.64882813 12.39195313 22.5625 11.0625 C22.48128906 9.77472656 22.40007813 8.48695312 22.31640625 7.16015625 C22.35080812 4.13976043 22.35080812 4.13976043 21 3 C19.36527118 2.91299658 17.72685945 2.89298937 16.08984375 2.90234375 C14.60581055 2.90717773 14.60581055 2.90717773 13.09179688 2.91210938 C11.53041992 2.92467773 11.53041992 2.92467773 9.9375 2.9375 C8.37032227 2.94426758 8.37032227 2.94426758 6.77148438 2.95117188 C4.1809334 2.96300087 1.59049441 2.97948311 -1 3 C-0.67 2.01 -0.34 1.02 0 0 Z " fill="#7A9EDE" transform="translate(7,15)"/>
<path d="M0 0 C2.68636205 0.06825602 3.78157595 0.12814359 6.0625 1.625 C7.0625 3.3125 7.0625 3.3125 7.0625 6.3125 C2.4425 6.3125 -2.1775 6.3125 -6.9375 6.3125 C-5.63502704 1.10260817 -5.39081895 0.42784277 0 0 Z " fill="#F4F1EF" transform="translate(188.9375,19.6875)"/>
<path d="M0 0 C2.68636205 0.06825602 3.78157595 0.12814359 6.0625 1.625 C7.0625 3.3125 7.0625 3.3125 7.0625 6.3125 C2.4425 6.3125 -2.1775 6.3125 -6.9375 6.3125 C-5.63502704 1.10260817 -5.39081895 0.42784277 0 0 Z " fill="#F4F1EF" transform="translate(100.9375,19.6875)"/>
<path d="M0 0 C3.5625 0.3125 3.5625 0.3125 5.5 1.625 C6.5625 3.3125 6.5625 3.3125 6.5625 6.3125 C2.2725 6.3125 -2.0175 6.3125 -6.4375 6.3125 C-4.97238372 0.45203488 -4.97238372 0.45203488 0 0 Z " fill="#EFECE8" transform="translate(124.4375,19.6875)"/>
<path d="M0 0 C3.84873252 3.84873252 3.14907556 9.76573759 3.328125 14.94921875 C3 17 3 17 1.734375 18.76953125 C0 20 0 20 -4 20 C-4 19.34 -4 18.68 -4 18 C-3.01 17.67 -2.02 17.34 -1 17 C-0.67 11.39 -0.34 5.78 0 0 Z " fill="#4689EA" transform="translate(41,19)"/>
<path d="M0 0 C2.475 0.495 2.475 0.495 5 1 C0.00555917 5.10257639 -4.30315906 5.1814446 -10.625 5.1875 C-11.305625 5.19974609 -11.98625 5.21199219 -12.6875 5.22460938 C-14.45990756 5.22986355 -16.2317994 5.12215906 -18 5 C-18.66 4.34 -19.32 3.68 -20 3 C-10.1 2.505 -10.1 2.505 0 2 C0 1.34 0 0.68 0 0 Z " fill="#2A77E2" transform="translate(31,35)"/>
<path d="M0 0 C0.33 0 0.66 0 1 0 C1.125 5.75 1.125 5.75 0 8 C-5.61 8 -11.22 8 -17 8 C-17 7.01 -17 6.02 -17 5 C-11.39 5 -5.78 5 0 5 C0 3.35 0 1.7 0 0 Z " fill="#F2F1F0" transform="translate(199,24)"/>
<path d="M0 0 C0.33 0 0.66 0 1 0 C1.125 5.75 1.125 5.75 0 8 C-5.61 8 -11.22 8 -17 8 C-17 7.01 -17 6.02 -17 5 C-11.39 5 -5.78 5 0 5 C0 3.35 0 1.7 0 0 Z " fill="#F2F1F0" transform="translate(111,24)"/>
<path d="M0 0 C0.474375 0.495 0.94875 0.99 1.4375 1.5 C5.21704967 3.71241932 8.71702146 3.59443474 13 3 C15.97984167 1.66829691 15.97984167 1.66829691 18 0 C16.9898352 2.92947793 15.9416301 4.04413334 13.4375 5.9375 C9.16429335 7.25830933 6.98874775 6.54395025 2.85546875 5.15234375 C1 4 1 4 0.23828125 1.87890625 C0.15964844 1.25886719 0.08101562 0.63882813 0 0 Z " fill="#EFEDEB" transform="translate(180,35)"/>
<path d="M0 0 C0.474375 0.495 0.94875 0.99 1.4375 1.5 C5.21704967 3.71241932 8.71702146 3.59443474 13 3 C15.97984167 1.66829691 15.97984167 1.66829691 18 0 C16.9898352 2.92947793 15.9416301 4.04413334 13.4375 5.9375 C9.16429335 7.25830933 6.98874775 6.54395025 2.85546875 5.15234375 C1 4 1 4 0.23828125 1.87890625 C0.15964844 1.25886719 0.08101563 0.63882813 0 0 Z " fill="#EFEDEB" transform="translate(92,35)"/>
<path d="M0 0 C2.97 0 5.94 0 9 0 C7.71937515 1.7074998 6.38232443 3.37373596 5 5 C4.34 5 3.68 5 3 5 C3 8.63 3 12.26 3 16 C2.67 16 2.34 16 2 16 C1.93941406 15.01257812 1.87882812 14.02515625 1.81640625 13.0078125 C1.73261719 11.72648437 1.64882813 10.44515625 1.5625 9.125 C1.48128906 7.84882813 1.40007813 6.57265625 1.31640625 5.2578125 C1.20793973 2.11699848 1.20793973 2.11699848 0 0 Z " fill="#7797D4" transform="translate(28,17)"/>
<path d="M0 0 C0.33 0 0.66 0 1 0 C1.07347656 1.28583984 1.07347656 1.28583984 1.1484375 2.59765625 C1.54534244 8.66756456 1.99208399 14.24397411 4 20 C0.125 18.125 0.125 18.125 -1 17 C-1.42564759 11.27879563 -0.82264831 5.65570712 0 0 Z " fill="#305FB0" transform="translate(7,18)"/>
<path d="M0 0 C0.33 0 0.66 0 1 0 C1 5.94 1 11.88 1 18 C-3.92422885 18.98484577 -4.81354102 19.03342293 -9 17 C-8.505 15.515 -8.505 15.515 -8 14 C-7.401875 14.33 -6.80375 14.66 -6.1875 15 C-3.94613529 16.20787988 -3.94613529 16.20787988 -1 16 C-0.67 10.72 -0.34 5.44 0 0 Z " fill="#234C9B" transform="translate(40,18)"/>
<path d="M0 0 C2.35953094 2.35953094 2.49141413 3.77895617 3 7 C2.34 7 1.68 7 1 7 C1 13.6 1 20.2 1 27 C0.67 27 0.34 27 0 27 C0 18.09 0 9.18 0 0 Z " fill="#EDE7E0" transform="translate(60,12)"/>
<path d="M0 0 C2.1640625 -0.29296875 2.1640625 -0.29296875 4.625 -0.1875 C5.44226563 -0.16042969 6.25953125 -0.13335938 7.1015625 -0.10546875 C8.04128906 -0.05326172 8.04128906 -0.05326172 9 0 C9.33 0.99 9.66 1.98 10 3 C6.04 3 2.08 3 -2 3 C-1.34 2.01 -0.68 1.02 0 0 Z " fill="#FBFBFB" transform="translate(121,22)"/>
<path d="M0 0 C0 0.99 0 1.98 0 3 C-6.27692308 7.06153846 -6.27692308 7.06153846 -9.9375 6.75 C-10.618125 6.5025 -11.29875 6.255 -12 6 C-12 5.34 -12 4.68 -12 4 C-10.95199219 3.81824219 -10.95199219 3.81824219 -9.8828125 3.6328125 C-8.51769531 3.38144531 -8.51769531 3.38144531 -7.125 3.125 C-5.76761719 2.88136719 -5.76761719 2.88136719 -4.3828125 2.6328125 C-1.83494012 2.16955297 -1.83494012 2.16955297 0 0 Z " fill="#EFEDEC" transform="translate(133,35)"/>
<path d="M0 0 C0.33 0 0.66 0 1 0 C1 4.95 1 9.9 1 15 C-0.65 15.33 -2.3 15.66 -4 16 C-4 15.34 -4 14.68 -4 14 C-3.01 13.67 -2.02 13.34 -1 13 C-0.67 8.71 -0.34 4.42 0 0 Z " fill="#3479DD" transform="translate(41,23)"/>
</svg>
